<svg width="136" height="137" viewBox="0 0 136 137" fill="none" xmlns="http://www.w3.org/2000/svg">
<circle cx="53.6129" cy="34.1168" r="15.0524" fill="#5E5E5E"/>
<circle cx="70.0524" cy="19.0192" r="15.0524" fill="#8D8D8D"/>
<path d="M15.7549 40.854H35.8756" stroke="black" stroke-width="2" stroke-linecap="round"/>
<path d="M15.7549 26.77H35.8756" stroke="black" stroke-width="2" stroke-linecap="round"/>
<path d="M8.37891 36.1597L35.8773 36.1597" stroke="black" stroke-width="2" stroke-linecap="round"/>
<path d="M1 31.4644L35.876 31.4644" stroke="black" stroke-width="2" stroke-linecap="round"/>
<path d="M29.1689 15.3682H49.2897" stroke="black" stroke-width="2" stroke-linecap="round"/>
<path d="M38.5576 1.9541H58.6784" stroke="black" stroke-width="2" stroke-linecap="round"/>
<path d="M21.79 10.6733L49.2884 10.6733" stroke="black" stroke-width="2" stroke-linecap="round"/>
<path d="M18.4375 5.97803L53.3135 5.97803" stroke="black" stroke-width="2" stroke-linecap="round"/>
<path d="M78.4657 120.117L86.3501 134.452H125.773V120.117C130.944 99.2213 138.46 83.4696 126.163 60.3604L120.183 43.3432C120.183 43.3432 114.866 36.7067 106.981 42.4407C101.547 38.3257 95.0958 41.1928 96.5294 49.0774L76.4596 16.8222C70.0086 9.65458 60.6904 15.5739 64.9908 24.8921L85.3061 56.7764C87.6165 60.3603 84.3599 61.4283 80.6159 57.7571L63.8136 34.025C63.8136 34.025 57.8232 23.9898 50.6555 29.0076C46.3547 32.0184 48.3609 38.3256 48.3609 38.3256L69.35 69.8639C69.35 69.8639 59.241 74.1646 58.54 83.5613C57.8112 93.3313 66.4246 108.649 66.4246 108.649L78.4657 120.117Z" fill="white"/>
<path d="M69.35 69.8639C69.35 69.8639 59.2411 74.1646 58.54 83.5613C57.8112 93.3313 66.4246 108.649 66.4246 108.649L78.4657 120.117L86.3501 134.452H125.773V120.117C130.944 99.2213 138.46 83.4696 126.163 60.3604L120.183 43.3432C120.183 43.3432 114.866 36.7067 106.981 42.4407M78.4657 83.5613L48.3609 38.3256C48.3609 38.3256 46.3547 32.0184 50.6555 29.0076C57.8232 23.9898 63.8136 34.025 63.8136 34.025L80.6159 57.7571C84.3599 61.4283 87.6165 60.3603 85.3061 56.7764L64.9908 24.8921C60.6904 15.5739 70.0086 9.65458 76.4596 16.8222L96.5294 49.0774M99.3965 53.3781L96.5294 49.0774M96.5294 49.0774C95.0958 41.1928 101.547 38.3257 106.981 42.4407M106.981 42.4407L110.394 48.1751" stroke="black" stroke-width="5" stroke-linecap="round"/>
</svg>
