<svg width="131" height="116" viewBox="0 0 131 116" fill="none" xmlns="http://www.w3.org/2000/svg">
<circle cx="52.1781" cy="14.642" r="14.642" fill="#5E5E5E"/>
<path d="M15.3525 21.1958H34.9247" stroke="black" stroke-width="2" stroke-linecap="round"/>
<path d="M15.3525 7.49512H34.9247" stroke="black" stroke-width="2" stroke-linecap="round"/>
<path d="M8.17676 16.6289L34.9254 16.6289" stroke="black" stroke-width="2" stroke-linecap="round"/>
<path d="M1 12.062L34.9251 12.062" stroke="black" stroke-width="2" stroke-linecap="round"/>
<path d="M83.2889 112.615L75.6195 98.6702L63.9067 87.5145C63.9067 87.5145 55.528 72.6148 56.237 63.1111C56.9189 53.9707 66.7523 49.7872 66.7523 49.7872L46.3355 19.1088C46.3355 19.1088 44.6903 12.7539 48.8738 9.82517C55.8461 4.94424 61.3668 14.9255 61.3668 14.9255L70.8497 28.3194C66.6665 19.2552 77.1762 14.9225 83.4514 21.8947L87.4082 29.0668C83.5998 21.5919 92.0074 16.8717 96.9042 21.8947C106.69 14.9255 114.767 27.4402 114.767 27.4402L120.965 42.7718C132.926 65.2509 126.667 78.3442 121.637 98.6702V112.615H83.2889Z" fill="white"/>
<path d="M66.7523 49.7872C66.7523 49.7872 56.9189 53.9707 56.237 63.1111C55.528 72.6148 63.9067 87.5145 63.9067 87.5145L75.6195 98.6702L83.2889 112.615H121.637V98.6702C126.667 78.3442 132.926 65.2509 120.965 42.7718L114.767 27.4402C114.767 27.4402 106.69 14.9255 96.9042 21.8947M75.6195 63.1111L46.3355 19.1088C46.3355 19.1088 44.6903 12.7539 48.8738 9.82517C55.8461 4.94424 61.3668 14.9255 61.3668 14.9255L77.711 38.0105M89.7278 32.9857L87.7706 29.7235M70.8497 28.3194C66.6665 19.2552 77.1762 14.9225 83.4514 21.8947L87.7706 29.7235M87.7706 29.7235C83.1095 21.8737 91.8655 16.7262 96.9042 21.8947M96.9042 21.8947L101.978 30.4267" stroke="black" stroke-width="5" stroke-linecap="round"/>
</svg>
